<mxfile host="app.diagrams.net" modified="2023-07-20T01:08:17.832Z" agent="Mozilla/5.0 (Windows NT 10.0; Win64; x64) AppleWebKit/537.36 (KHTML, like Gecko) Chrome/114.0.0.0 Safari/537.36" version="21.6.3" etag="XVjv_SRnJk7muRQQU_Dn" type="github">
  <diagram name="第 1 页" id="2f-XJURhfi9uTXxD_C6e">
    <mxGraphModel>
      <root>
        <mxCell id="0" />
        <mxCell id="1" parent="0" />
      </root>
    </mxGraphModel>
  </diagram>
</mxfile>
